<mxfile host="app.diagrams.net" modified="2022-07-02T13:17:48.150Z" agent="5.0 (Windows NT 10.0; Win64; x64) AppleWebKit/537.36 (KHTML, like Gecko) Chrome/102.0.5005.115 Safari/537.36 OPR/88.0.4412.53" etag="4sx9EfeyLkWeP3MDEi4R" version="20.0.4" type="github">
  <diagram id="IU8xrknCbxoS3MElJnr0" name="Page-1">
    <mxGraphModel dx="828" dy="483" grid="1" gridSize="10" guides="1" tooltips="1" connect="1" arrows="1" fold="1" page="1" pageScale="1" pageWidth="850" pageHeight="1100" math="0" shadow="0">
      <root>
        <mxCell id="0" />
        <mxCell id="1" parent="0" />
        <mxCell id="g_g9T-lzfb4vLyNzol36-1" value="alumni" style="shape=umlActor;verticalLabelPosition=bottom;verticalAlign=top;html=1;outlineConnect=0;" parent="1" vertex="1">
          <mxGeometry x="220" y="250" width="30" height="60" as="geometry" />
        </mxCell>
        <mxCell id="g_g9T-lzfb4vLyNzol36-2" value="registrasi" style="ellipse;whiteSpace=wrap;html=1;" parent="1" vertex="1">
          <mxGeometry x="350" y="160" width="240" height="60" as="geometry" />
        </mxCell>
        <mxCell id="g_g9T-lzfb4vLyNzol36-3" value="login" style="ellipse;whiteSpace=wrap;html=1;" parent="1" vertex="1">
          <mxGeometry x="350" y="250" width="240" height="60" as="geometry" />
        </mxCell>
        <mxCell id="g_g9T-lzfb4vLyNzol36-4" value="mengisi data alumni" style="ellipse;whiteSpace=wrap;html=1;" parent="1" vertex="1">
          <mxGeometry x="350" y="330" width="240" height="60" as="geometry" />
        </mxCell>
        <mxCell id="g_g9T-lzfb4vLyNzol36-5" value="" style="swimlane;startSize=0;" parent="1" vertex="1">
          <mxGeometry x="320" y="80" width="300" height="360" as="geometry" />
        </mxCell>
        <mxCell id="g_g9T-lzfb4vLyNzol36-11" value="Simpan Data Alumni" style="text;html=1;strokeColor=none;fillColor=none;align=center;verticalAlign=middle;whiteSpace=wrap;rounded=0;" parent="g_g9T-lzfb4vLyNzol36-5" vertex="1">
          <mxGeometry x="30" y="10" width="130" height="30" as="geometry" />
        </mxCell>
        <mxCell id="g_g9T-lzfb4vLyNzol36-8" value="" style="endArrow=classic;html=1;rounded=0;exitX=0.75;exitY=0.1;exitDx=0;exitDy=0;exitPerimeter=0;entryX=0;entryY=0.5;entryDx=0;entryDy=0;" parent="1" source="g_g9T-lzfb4vLyNzol36-1" target="g_g9T-lzfb4vLyNzol36-2" edge="1">
          <mxGeometry width="50" height="50" relative="1" as="geometry">
            <mxPoint x="390" y="270" as="sourcePoint" />
            <mxPoint x="440" y="220" as="targetPoint" />
          </mxGeometry>
        </mxCell>
        <mxCell id="g_g9T-lzfb4vLyNzol36-9" value="" style="endArrow=classic;html=1;rounded=0;entryX=0;entryY=0.5;entryDx=0;entryDy=0;" parent="1" source="g_g9T-lzfb4vLyNzol36-1" target="g_g9T-lzfb4vLyNzol36-3" edge="1">
          <mxGeometry width="50" height="50" relative="1" as="geometry">
            <mxPoint x="390" y="270" as="sourcePoint" />
            <mxPoint x="440" y="220" as="targetPoint" />
          </mxGeometry>
        </mxCell>
        <mxCell id="g_g9T-lzfb4vLyNzol36-10" value="" style="endArrow=classic;html=1;rounded=0;exitX=1;exitY=1;exitDx=0;exitDy=0;exitPerimeter=0;entryX=0;entryY=0.5;entryDx=0;entryDy=0;" parent="1" source="g_g9T-lzfb4vLyNzol36-1" target="g_g9T-lzfb4vLyNzol36-4" edge="1">
          <mxGeometry width="50" height="50" relative="1" as="geometry">
            <mxPoint x="390" y="270" as="sourcePoint" />
            <mxPoint x="440" y="220" as="targetPoint" />
          </mxGeometry>
        </mxCell>
      </root>
    </mxGraphModel>
  </diagram>
</mxfile>
